<svg xmlns="http://www.w3.org/2000/svg" viewBox="0 0 500 372.61"><defs><style>.cls-1{fill:#ebebeb;}.cls-2{fill:#e0e0e0;}.cls-3{fill:#e6e6e6;}.cls-4{fill:#f0f0f0;}.cls-16,.cls-17,.cls-18,.cls-19,.cls-22,.cls-26,.cls-5{fill:#fff;}.cls-6{fill:#f5f5f5;}.cls-7{fill:#ff8c42;}.cls-8{fill:#a32424;}.cls-10,.cls-11,.cls-12,.cls-13,.cls-14,.cls-16,.cls-17,.cls-18,.cls-19,.cls-21,.cls-22,.cls-23,.cls-24,.cls-26,.cls-30,.cls-8{isolation:isolate;}.cls-9{fill:#407bff;}.cls-10{fill:#ff3c38;}.cls-11,.cls-17,.cls-30{opacity:0.2;}.cls-12{fill:#841e1e;}.cls-13{fill:#ad2727;}.cls-13,.cls-22{opacity:0.8;}.cls-14{opacity:0.1;}.cls-15{fill:#263238;}.cls-16,.cls-21{opacity:0.5;}.cls-18{opacity:0.4;}.cls-19{opacity:0.6;}.cls-20{fill:#b97964;}.cls-21,.cls-24,.cls-25{fill:#6c8ead;}.cls-23,.cls-26{opacity:0.3;}.cls-25,.cls-28,.cls-29{stroke:#263238;stroke-linecap:round;stroke-linejoin:round;}.cls-25,.cls-29{stroke-width:0.5px;}.cls-27{fill:#a24e3f;}.cls-28,.cls-29{fill:none;}.cls-28{stroke-width:0.72px;}</style></defs><title>Fichier 2</title><g id="Calque_2" data-name="Calque 2"><g id="Background_Complete" data-name="Background Complete"><rect class="cls-1" y="327.45" width="500" height="0.25"/><rect class="cls-1" x="416.78" y="343.54" width="33.12" height="0.25"/><rect class="cls-1" x="322.53" y="346.26" width="8.69" height="0.25"/><rect class="cls-1" x="396.59" y="334.26" width="19.19" height="0.25"/><rect class="cls-1" x="52.46" y="335.94" width="43.19" height="0.25"/><rect class="cls-1" x="104.56" y="335.94" width="6.33" height="0.25"/><rect class="cls-1" x="131.47" y="340.16" width="93.68" height="0.25"/><path class="cls-1" d="M237,282.85H43.91a5.71,5.71,0,0,1-5.7-5.71V5.71A5.71,5.71,0,0,1,43.91,0H237a5.71,5.71,0,0,1,5.71,5.71V277.14A5.71,5.71,0,0,1,237,282.85ZM43.91.25a5.46,5.46,0,0,0-5.45,5.46V277.14a5.46,5.46,0,0,0,5.45,5.46H237a5.47,5.47,0,0,0,5.46-5.46V5.71A5.47,5.47,0,0,0,237,.25Z"/><path class="cls-1" d="M453.31,282.85H260.21a5.72,5.72,0,0,1-5.71-5.71V5.71A5.72,5.72,0,0,1,260.21,0h193.1A5.71,5.71,0,0,1,459,5.71V277.14A5.71,5.71,0,0,1,453.31,282.85ZM260.21.25a5.47,5.47,0,0,0-5.46,5.46V277.14a5.47,5.47,0,0,0,5.46,5.46h193.1a5.47,5.47,0,0,0,5.46-5.46V5.71A5.47,5.47,0,0,0,453.31.25Z"/><rect class="cls-2" x="50.17" y="29.45" width="186.62" height="7.43" rx="2.12"/><rect class="cls-3" x="61.25" y="35.36" width="164.45" height="145.92"/><rect class="cls-4" x="65.37" y="39.36" width="156" height="138"/><polygon class="cls-5" points="101.98 39.36 65.37 177.06 65.37 112.36 84.7 39.36 101.98 39.36"/><polygon class="cls-5" points="114.95 39.36 78.02 177.36 72.12 177.36 109.06 39.36 114.95 39.36"/><polygon class="cls-5" points="221.37 126.44 221.37 148.5 213.9 177.36 208 177.36 221.37 126.44"/><rect class="cls-3" x="117.15" y="36.88" width="2.63" height="143.56"/><rect class="cls-3" x="168.08" y="36.88" width="2.63" height="143.56"/><path class="cls-2" d="M198.9,31.83s3.78,49.37,25.54,74.53c0,0-15.85,63.53-15.84,85.69l29.46-5.44-10.62-79.88,5.08-74.9Z"/><path class="cls-2" d="M88.06,31.83S84.27,81.2,62.52,106.36c0,0,15.84,63.53,15.83,85.69L48.9,186.61l10.62-79.88-5.08-74.9Z"/><rect class="cls-2" x="326.25" y="67.42" width="130.44" height="6.7"/><rect class="cls-1" x="332.25" y="42.72" width="5.75" height="24.7"/><rect class="cls-1" x="360.04" y="42.72" width="5.75" height="24.7"/><rect class="cls-1" x="393.72" y="42.41" width="5.75" height="24.7" transform="translate(-3.54 68.15) rotate(-9.78)"/><rect class="cls-1" x="339.37" y="45.97" width="5.75" height="21.45"/><rect class="cls-1" x="352.58" y="45.97" width="5.75" height="21.45"/><rect class="cls-1" x="385.92" y="45.97" width="5.75" height="21.45"/><rect class="cls-1" x="369.98" y="45.6" width="5.75" height="21.45" transform="translate(-3.34 82.21) rotate(-12.53)"/><rect class="cls-1" x="347.21" y="41.49" width="2.87" height="25.93"/><rect class="cls-1" x="381.39" y="41.49" width="2.87" height="25.93"/><rect class="cls-1" x="416.17" y="47.87" width="28" height="19.33"/><rect class="cls-2" x="326.25" y="117.45" width="130.44" height="6.7" transform="translate(782.93 241.6) rotate(180)"/><rect class="cls-1" x="444.94" y="92.75" width="5.75" height="24.7" transform="translate(895.62 210.2) rotate(180)"/><rect class="cls-1" x="417.15" y="92.75" width="5.75" height="24.7" transform="translate(840.04 210.2) rotate(180)"/><rect class="cls-1" x="383.46" y="92.44" width="5.75" height="24.7" transform="translate(749.26 273.67) rotate(-170.22)"/><rect class="cls-1" x="437.82" y="96" width="5.75" height="21.45" transform="translate(881.38 213.45) rotate(180)"/><rect class="cls-1" x="424.61" y="96" width="5.75" height="21.45" transform="translate(854.96 213.45) rotate(180)"/><rect class="cls-1" x="391.27" y="96" width="5.75" height="21.45" transform="translate(788.28 213.45) rotate(180)"/><rect class="cls-1" x="407.21" y="95.63" width="5.75" height="21.45" transform="translate(787.33 299.13) rotate(-167.47)"/><rect class="cls-1" x="432.85" y="91.52" width="2.87" height="25.93" transform="translate(868.57 208.97) rotate(180)"/><rect class="cls-1" x="398.67" y="91.52" width="2.87" height="25.93" transform="translate(800.2 208.97) rotate(180)"/><rect class="cls-1" x="338.76" y="97.9" width="28" height="19.33" transform="translate(705.53 215.13) rotate(180)"/><path class="cls-1" d="M316.73,250.26H431.27a4.23,4.23,0,0,1,4.23,4.23V261a0,0,0,0,1,0,0h-123a0,0,0,0,1,0,0v-6.48A4.23,4.23,0,0,1,316.73,250.26Z"/><polygon class="cls-6" points="432.49 256.88 315.51 256.88 309.72 256.88 309.49 256.88 309.49 327.41 315.51 327.41 315.51 265.05 432.49 265.05 432.49 327.41 438.51 327.41 438.51 265.05 438.51 256.88 432.49 256.88"/><path class="cls-1" d="M68.73,250.26H183.27a4.23,4.23,0,0,1,4.23,4.23V261a0,0,0,0,1,0,0H64.5a0,0,0,0,1,0,0v-6.48A4.23,4.23,0,0,1,68.73,250.26Z"/><polygon class="cls-6" points="184.49 256.88 67.51 256.88 61.72 256.88 61.49 256.88 61.49 327.41 67.51 327.41 67.51 265.05 184.49 265.05 184.49 327.41 190.51 327.41 190.51 265.05 190.51 256.88 184.49 256.88"/></g><g id="Shadow"><ellipse id="_Path_" data-name="&lt;Path&gt;" class="cls-6" cx="250" cy="361.29" rx="193.89" ry="11.32"/></g><g id="Piano"><path class="cls-7" d="M217.46,141.79h-2.34v3.47h2.34v26.16h-2l-9.22,43.79-42,6.1v19.4h3.51v111h-3.51v6.8h53.21v.25H397.18V141.79ZM174.77,351.68v-111h42.69v111Z"/><polygon class="cls-8" points="217.46 240.71 347.46 240.71 347.46 305.53 217.46 344.87 217.46 240.71"/><path class="cls-9" d="M347.46,141.79h-2.34v3.47h2.34v26.16h-2l-9.22,43.79-42,6.1v19.4h3.51v111h-3.51v6.8h53.21v.25h49.72V141.79ZM304.77,351.68v-111h42.69v111Z"/><path class="cls-10" d="M347.46,141.79h-2.34v3.47h2.34v26.16h-2l-9.22,43.79-42,6.1v19.4h3.51v111h-3.51v6.8h53.21v.25h49.72V141.79ZM304.77,351.68v-111h42.69v111Z"/><rect class="cls-11" x="167.76" y="240.71" width="7.01" height="110.98"/><rect class="cls-11" x="297.76" y="240.71" width="7.01" height="110.98"/><polygon class="cls-12" points="217.46 145.26 347.46 145.26 347.46 149.89 217.46 147.54 217.46 145.26"/><polygon class="cls-11" points="217.46 171.42 347.46 171.42 217.46 170.16 217.46 171.42"/><polygon class="cls-11" points="168.58 227.7 290.96 227.7 290.96 220.43 309.81 218.03 195.75 218.03 168.58 221.98 168.58 227.7"/><polygon class="cls-13" points="206.21 215.21 336.21 215.21 297.76 210.25 303.77 177.15 248.36 177.15 239.79 213.81 206.21 215.21"/><polygon class="cls-5" points="173.62 226.66 290.96 226.66 290.96 221.93 196.11 221.93 173.62 225.3 173.62 226.66"/><rect class="cls-14" x="173.62" y="225.3" width="117.33" height="1.37"/><polygon class="cls-15" points="198.94 221.32 190.24 223.07 190.24 223.57 193.51 223.57 201.32 221.93 201.32 221.32 198.94 221.32"/><polygon class="cls-15" points="207.02 221.32 198.32 223.07 198.32 223.57 201.58 223.57 209.4 221.93 209.4 221.32 207.02 221.32"/><polygon class="cls-15" points="215.1 221.32 206.4 223.07 206.4 223.57 209.66 223.57 217.47 221.93 217.47 221.32 215.1 221.32"/><polygon class="cls-15" points="223.18 221.32 214.47 223.07 214.47 223.57 217.74 223.57 225.55 221.93 225.55 221.32 223.18 221.32"/><polygon class="cls-15" points="231.25 221.32 222.55 223.07 222.55 223.57 225.81 223.57 233.63 221.93 233.63 221.32 231.25 221.32"/><polygon class="cls-15" points="239.33 221.32 230.63 223.07 230.63 223.57 233.89 223.57 241.7 221.93 241.7 221.32 239.33 221.32"/><polygon class="cls-15" points="247.41 221.32 238.7 223.07 238.7 223.57 241.97 223.57 249.78 221.93 249.78 221.32 247.41 221.32"/><polygon class="cls-15" points="255.48 221.32 246.78 223.07 246.78 223.57 250.04 223.57 257.86 221.93 257.86 221.32 255.48 221.32"/><polygon class="cls-15" points="263.56 221.32 254.86 223.07 254.86 223.57 258.12 223.57 265.93 221.93 265.93 221.32 263.56 221.32"/><polygon class="cls-15" points="271.64 221.32 262.93 223.07 262.93 223.57 266.2 223.57 274.01 221.93 274.01 221.32 271.64 221.32"/><polygon class="cls-15" points="279.71 221.32 271.01 223.07 271.01 223.57 274.27 223.57 282.09 221.93 282.09 221.32 279.71 221.32"/><polygon class="cls-15" points="287.79 221.32 279.09 223.07 279.09 223.57 282.35 223.57 290.17 221.93 290.17 221.32 287.79 221.32"/><path class="cls-9" d="M380.12,97.8c-1.34-2.21-3.54-.29-3.54-.29.31-4.22-3.57-7.11-3.57-7.11s4.51,0,5.14-4.31-1.57-2.3-3.64-2.33-4.23,6-1.5,9.41,2,9.19-4.3,14.77a12.3,12.3,0,0,0-3.29,5.13c.48-5.13.75-12.34-.76-17.16-2.56-8.19,2.32-10.39,3.73-14.48s-3.73-7.56-3.73-7.56,4.83-2.2,2.47-4.72-7.24-2.17-7.24,1.12,3.31,4.55,3.31,4.55,3.78,3.93,3.78,6-3.78,6.45-3.78,6.45,1.73-3.77-1.73-3.93-4.57,4.4-3.15,6.45,3.78.31,3.78.31a39.63,39.63,0,0,0,1.08,7.09c.35,1.17.19,5.79-.11,10.59a12,12,0,0,0-3.07-4.55c-6.29-5.57-7-11.37-4.3-14.77s.57-9.43-1.5-9.4-4.27-2-3.64,2.33,5.14,4.31,5.14,4.31-3.88,2.88-3.57,7.11c0,0-2.2-1.92-3.54.28-2.39,3.94,3.15,6.38,4.08,4.44,0,0,11.74,8.31,8.91,20.27l.66,1c-.09,1-.14,1.55-.14,1.55l.92-.39,1,1.54a36,36,0,0,0,.27,5.2l2.8-4.14c-2.83-12,8.91-20.28,8.91-20.28C377,104.17,382.51,101.73,380.12,97.8Z"/><path class="cls-12" d="M380.12,97.8c-1.34-2.21-3.54-.29-3.54-.29.31-4.22-3.57-7.11-3.57-7.11s4.51,0,5.14-4.31-1.57-2.3-3.64-2.33-4.23,6-1.5,9.41,2,9.19-4.3,14.77a12.3,12.3,0,0,0-3.29,5.13c.48-5.13.75-12.34-.76-17.16-2.56-8.19,2.32-10.39,3.73-14.48s-3.73-7.56-3.73-7.56,4.83-2.2,2.47-4.72-7.24-2.17-7.24,1.12,3.31,4.55,3.31,4.55,3.78,3.93,3.78,6-3.78,6.45-3.78,6.45,1.73-3.77-1.73-3.93-4.57,4.4-3.15,6.45,3.78.31,3.78.31a39.63,39.63,0,0,0,1.08,7.09c.35,1.17.19,5.79-.11,10.59a12,12,0,0,0-3.07-4.55c-6.29-5.57-7-11.37-4.3-14.77s.57-9.43-1.5-9.4-4.27-2-3.64,2.33,5.14,4.31,5.14,4.31-3.88,2.88-3.57,7.11c0,0-2.2-1.92-3.54.28-2.39,3.94,3.15,6.38,4.08,4.44,0,0,11.74,8.31,8.91,20.27l.66,1c-.09,1-.14,1.55-.14,1.55l.92-.39,1,1.54a36,36,0,0,0,.27,5.2l2.8-4.14c-2.83-12,8.91-20.28,8.91-20.28C377,104.17,382.51,101.73,380.12,97.8Z"/><polygon class="cls-9" points="373.01 141.39 369.22 119.7 370.29 113.39 358.36 113.39 359.43 119.7 355.65 141.39 373.01 141.39"/><polygon class="cls-16" points="373.01 141.39 369.22 119.7 370.29 113.39 358.36 113.39 359.43 119.7 355.65 141.39 373.01 141.39"/><polygon class="cls-9" points="266.62 122.2 273.29 141.79 253.84 141.79 266.62 122.2"/><polygon class="cls-12" points="266.62 122.2 273.29 141.79 253.84 141.79 266.62 122.2"/><polygon class="cls-9" points="266.74 141.98 244.5 142 250.57 113.3 272.82 113.28 266.74 141.98"/><polygon class="cls-11" points="266.74 141.98 244.5 142 250.57 113.3 272.82 113.28 266.74 141.98"/><polygon class="cls-16" points="265.22 140.64 246.61 140.53 252.09 114.64 270.71 114.75 265.22 140.64"/><path class="cls-17" d="M259,116.8s-3.22,1.22-6.13,8.62c-2,5.08,2,5.23,2,5.23s-.53,3.85-1.55,4.72c-1.61,1.36-5.91,1.34-5.91,1.34l-.81,3.82,18.61.11.84-3.95s-5.37-.42-5.74-1.28,1.29-5.49,1.29-5.49l1.79-2.25s4-4.33,3.41-7.9A4.78,4.78,0,0,0,259,116.8Z"/></g><g id="Chair"><polygon class="cls-15" points="146.96 275.73 147.32 291.3 148.96 361.73 154.37 361.73 156 291.3 156.36 275.73 146.96 275.73"/><polygon class="cls-18" points="146.96 275.73 147.32 291.3 148.96 361.73 154.37 361.73 156 291.3 156.36 275.73 146.96 275.73"/><polygon class="cls-11" points="146.96 275.73 147.32 291.73 156 291.73 156.36 275.73 146.96 275.73"/><polygon class="cls-15" points="117.59 361.48 122.58 276.83 130.75 276.83 123.76 361.48 117.59 361.48"/><polygon class="cls-16" points="123.77 361.48 117.59 361.48 122.13 284.43 122.58 276.73 130.75 276.73 130.12 284.43 123.77 361.48"/><polygon class="cls-11" points="130.75 276.73 130.12 284.73 122.13 284.73 122.58 276.73 130.75 276.73"/><polygon class="cls-15" points="179.58 361.48 172.58 276.83 180.75 276.83 185.75 361.48 179.58 361.48"/><polygon class="cls-16" points="179.56 361.48 173.21 284.43 172.58 276.73 180.75 276.73 181.2 284.43 185.74 361.48 179.56 361.48"/><polygon class="cls-11" points="172.58 276.73 173.21 284.73 181.2 284.73 180.75 276.73 172.58 276.73"/><path class="cls-7" d="M118.21,268.06h66.92a0,0,0,0,1,0,0v6.69a5,5,0,0,1-5,5H123.21a5,5,0,0,1-5-5v-6.69A0,0,0,0,1,118.21,268.06Z" transform="translate(303.33 547.81) rotate(180)"/><rect class="cls-15" x="115" y="273.9" width="73.33" height="5.84" rx="2.01" transform="translate(303.33 553.65) rotate(180)"/><rect class="cls-19" x="115" y="273.9" width="73.33" height="5.84" rx="2.01" transform="translate(303.33 553.65) rotate(180)"/></g><g id="Character"><path class="cls-15" d="M180,138.94s-4.71-3.66-10-3.76-17.53,3.86-16.94,17.41-.39,28.28-.39,28.28l20.47,6.83s13.26-22.46,14.15-30S180,138.94,180,138.94Z"/><path class="cls-20" d="M224.8,209.06l6.42-1.85s2.37-5.45,3.16-5.69,7.14-1.52,7.14-1.52l-2.76,10.8s-3.06,1.42-4,1l-8.7,2.63Z"/><path class="cls-9" d="M179.71,181.29c6.67,5.22,14.64,26.67,22.7,29.51,5.53,1.95,25.68-3.19,25.68-3.19l2.54,6.85s-19.85,9-32.81,6.86c-11.5-1.87-25.64-19.8-25.64-19.8Z"/><path class="cls-21" d="M179.71,181.29c6.67,5.22,14.64,26.67,22.7,29.51,5.53,1.95,25.68-3.19,25.68-3.19l2.54,6.85s-19.85,9-32.81,6.86c-11.5-1.87-25.64-19.8-25.64-19.8Z"/><polygon class="cls-7" points="194.99 224.3 187.28 208.27 188.93 207.23 196.21 222.44 194.99 224.3"/><path class="cls-20" d="M171.07,219.66l10.19.34s10-5.4,11.43-5.53,5.54,4.61,5.94,5.8S188.15,227.16,186,227a4.11,4.11,0,0,1-3.09-1.68l-11.3.68Z"/><polygon class="cls-20" points="237.03 326.42 230.45 328 227.12 318.92 224.1 310.67 231.59 307.47 234.47 317.49 237.03 326.42"/><path class="cls-9" d="M228.85,327.56c-.16-.73,8.89-2.31,8.89-2.31s6.82,4.26,12.44,4.23,3.42,3.88-2.53,5.31l-14.71,3.54C228.71,339.35,230.49,335.12,228.85,327.56Z"/><path class="cls-15" d="M241.9,326.51a14.87,14.87,0,0,1-2.89-.35.11.11,0,0,1-.08,0h0l-.07-.06,0-.06a.37.37,0,0,1,0-.11c0-.1.26-2.35,1.35-3.15a1.38,1.38,0,0,1,1.15-.24c.46.09.71.3.77.61.09.47-.44,1.09-1.07,1.65a3.77,3.77,0,0,1,2-.26,1,1,0,0,1,.62.49.86.86,0,0,1,0,1A2.34,2.34,0,0,1,241.9,326.51Zm-2.11-.69c1.45.24,3.2.34,3.53-.11,0,0,.12-.16,0-.49a.54.54,0,0,0-.33-.25C242.21,324.76,240.73,325.36,239.79,325.82ZM241,323a.93.93,0,0,0-.55.18,4.07,4.07,0,0,0-1.07,2.29c1.2-.82,2.31-1.82,2.24-2.23,0-.12-.26-.19-.39-.22Z"/><polygon class="cls-11" points="234.47 317.49 227.12 318.92 224.1 310.67 231.59 307.47 234.47 317.49"/><polygon class="cls-15" points="175.68 235.45 194.5 219.96 224.8 222.23 204.54 235.07 175.68 235.45"/><polygon class="cls-22" points="175.68 235.45 194.5 219.96 224.8 222.23 204.54 235.07 175.68 235.45"/><path class="cls-15" d="M233.81,312.7l-9.12,3.39s-24.33-60.83-29.33-61-55.91,23.19-68.67,10.21S132.38,221,132.38,221s30.69-4.38,33,2.55a48.61,48.61,0,0,1,1.3,6.22c.35,2.12.59,3.9.59,3.9h0c1-.24,31.76-8.19,43.9,0C223.52,242,233.81,312.7,233.81,312.7Z"/><polygon class="cls-20" points="181.35 352.37 174.8 350.69 176.06 341.29 177.23 332.67 185.33 333.39 183.23 343.44 181.35 352.37"/><path class="cls-9" d="M173,350.37c0-.74,9.18-.05,9.18-.05s5.57,5.8,11,7.16,2.36,4.6-3.76,4.53l-15.14-.19C170,361.77,172.76,358.1,173,350.37Z"/><path class="cls-15" d="M187,352.72a11.39,11.39,0,0,1-3.81-1.2h0l-.06,0a.19.19,0,0,1-.05-.09h0a.07.07,0,0,1,0-.05h0a.2.2,0,0,1,0-.11c0-.1.83-2.22,2.08-2.72a1.39,1.39,0,0,1,1.18,0q.63.31.6.78c0,.48-.7,1-1.45,1.35a3.8,3.8,0,0,1,2.06.24,1.06,1.06,0,0,1,.48.63.87.87,0,0,1-.24,1A1.21,1.21,0,0,1,187,352.72Zm-3-1.35c1.34.59,3,1.12,3.45.77,0,0,.16-.13.07-.49a.51.51,0,0,0-.26-.32C186.66,350.94,185.09,351.16,184.06,351.37Zm1.66-2.5a1.15,1.15,0,0,0-.36.07,4.07,4.07,0,0,0-1.6,1.95c1.37-.49,2.69-1.19,2.71-1.6,0-.13-.19-.25-.32-.31A1,1,0,0,0,185.72,348.87Z"/><polygon class="cls-11" points="183.18 343.64 176.01 341.47 177.21 332.76 185.32 333.44 183.18 343.64"/><polygon class="cls-7" points="220.92 312.72 234.21 308.2 234.77 313.64 224.7 317.21 220.92 312.72"/><path class="cls-15" d="M148.73,268.38s2.08.05,34.27-1.45c0,0-4.81,40.25-7.44,70.37l9.63,1.64s23-64.51,22.75-74.76-12-13.25-12-13.25S173,264.18,148.73,268.38Z"/><path class="cls-23" d="M148.73,268.38s2.08.05,34.27-1.45c0,0-4.81,40.25-7.44,70.37l9.63,1.64s23-64.51,22.75-74.76-12-13.25-12-13.25S173,264.18,148.73,268.38Z"/><polygon class="cls-7" points="174.15 334.38 187.38 335.89 184.83 341.07 174.12 339.7 174.15 334.38"/><path class="cls-23" d="M167.27,233.69l-18,3.74s9.92-5.48,17.36-7.64C167,231.91,167.27,233.69,167.27,233.69Z"/><polygon class="cls-15" points="133.12 216.25 132.38 221.02 165.38 223.57 166.25 217.92 133.12 216.25"/><polygon class="cls-11" points="133.12 216.25 132.38 221.02 165.38 223.57 166.25 217.92 133.12 216.25"/><rect class="cls-15" x="142.32" y="215.83" width="1.64" height="8.35" transform="translate(23.25 -13.48) rotate(5.87)"/><rect class="cls-5" x="151.12" y="217.68" width="7.24" height="5.49" transform="matrix(1, 0.06, -0.06, 1, 14.45, -9.47)"/><rect class="cls-15" x="162.58" y="216.72" width="1.64" height="8.35" transform="translate(23.46 -15.56) rotate(5.87)"/><path class="cls-9" d="M134.12,216.25s-3.37-28.16,7.34-46.2c0,0,22.94-9.11,38.25,11.24,0,0,2.29,20.6-1.51,24.6s-11.47,15.43-11.47,15.43Z"/><path class="cls-24" d="M134.12,216.25s-3.37-28.16,7.34-46.2c0,0,22.94-9.11,38.25,11.24,0,0,2.29,20.6-1.51,24.6s-11.47,15.43-11.47,15.43Z"/><path class="cls-9" d="M141.46,170.05c10.8-2.7,9.09,37.62,10.9,42.57S179.3,218,179.3,218l-.53,8.63S150,229,142.06,222.45,131.35,172.57,141.46,170.05Z"/><path class="cls-21" d="M141.46,170.05c10.8-2.7,9.09,37.62,10.9,42.57S179.3,218,179.3,218l-.53,8.63S150,229,142.06,222.45,131.35,172.57,141.46,170.05Z"/><path class="cls-15" d="M172.18,136.07s3.24-3.36,9.52,0,16.35,11.76,12.4,24.67-8.89,26.36-6.82,32.69-4.66,6.57-4.66,6.57,3.32-1,2.26-5.28,0-19.68,0-19.68-3.83,11-7.59,9-6.73-9.89-13.95-12.43C158,169.74,172.18,136.07,172.18,136.07Z"/><path class="cls-25" d="M152.66,168.17c.3,2.32,14.61,33.3,14.61,33.3s3.45-19.69,1.31-24.32S152.66,168.17,152.66,168.17Z"/><path class="cls-9" d="M152.66,168.17a19.29,19.29,0,0,1,4.46-2.43c2.76-1.09,9.8,4.75,10.77,7.08s-6,4.79-6,4.79Z"/><path class="cls-26" d="M152.66,168.17a19.29,19.29,0,0,1,4.46-2.43c2.76-1.09,9.8,4.75,10.77,7.08s-6,4.79-6,4.79Z"/><path class="cls-20" d="M166.41,171.59c-.14,2,.93,2.54.93,2.54a4,4,0,0,1-4.76,4.16c-6.11-1.24-7.33-8.86-7.33-8.86,4.67-1.34,6.16-6.2,6.64-9.12a16,16,0,0,0,.22-2.31l7.88,6.11a29.29,29.29,0,0,0-2.24,3.49A10.38,10.38,0,0,0,166.41,171.59Z"/><path class="cls-11" d="M170,164.11a29.29,29.29,0,0,0-2.24,3.49,10.38,10.38,0,0,0-1.34,4c-4.72-.58-4.49-11.21-4.49-11.21l0-.07a16,16,0,0,0,.22-2.31Z"/><path class="cls-9" d="M157.12,165.74s4,5.77,7.13,7.08,3.64,0,3.64,0l1.58,3.8s0,5.91-6.85,5.93c-5.61,0-10-14.38-10-14.38Z"/><path class="cls-16" d="M157.12,165.74s4,5.77,7.13,7.08,3.64,0,3.64,0l1.58,3.8s0,5.91-6.85,5.93c-5.61,0-10-14.38-10-14.38Z"/><path class="cls-20" d="M179.3,143.16c7.76,3.53,8.37,8.82,5.31,17.07-3.82,10.32-9.26,16.42-18,9.88C154.75,161.23,166.41,137.31,179.3,143.16Z"/><path class="cls-27" d="M179.79,157.52a18.24,18.24,0,0,0,.8,4.25,2.36,2.36,0,0,1-2.45-.05Z"/><path class="cls-15" d="M175.33,154.73c-.28.65-.85,1-1.28.84s-.55-.86-.28-1.5.85-1,1.28-.84S175.6,154.09,175.33,154.73Z"/><path class="cls-15" d="M174.85,153.19l1.64.05S175.29,154.12,174.85,153.19Z"/><path class="cls-15" d="M183.4,158c-.28.64-.85,1-1.28.83s-.55-.85-.28-1.49.85-1,1.28-.84S183.67,157.37,183.4,158Z"/><path class="cls-15" d="M182.92,156.47l1.64,0S183.36,157.4,182.92,156.47Z"/><path class="cls-28" d="M177.68,149.34a4.43,4.43,0,0,0-3.9-.36"/><path class="cls-28" d="M183.47,151.57a4,4,0,0,1,2.81,2"/><path class="cls-15" d="M164.88,152.4s6.52-4.73,8.21-9.91c0,0,18.23.7,11.9,16.66,0,0,7.8-13.18-5.41-19.55s-22,13.19-17.75,22.13C161.83,161.73,160.82,155.37,164.88,152.4Z"/><path class="cls-20" d="M165.4,154.61a3.73,3.73,0,0,0-2.25-4.77c-2.53-.83-5.91,3.59-.47,7.49C163.46,157.89,164.33,157.27,165.4,154.61Z"/><path class="cls-28" d="M172.18,160.74a4.13,4.13,0,0,0,3.67,4"/><path class="cls-29" d="M185.89,171.61s1,15.28-6.59,15c-2.61-.1-4.48-6.81-6.56-8.26"/><path class="cls-29" d="M193.9,152c1.68,4.45-2,22.12-4.55,29.3s-1.64,14.42-2,17.88a4.41,4.41,0,0,1-3.81,3.86"/><path class="cls-9" d="M167.27,201.47a11.78,11.78,0,0,1,1.31,4.62C168.48,208,164,207.62,167.27,201.47Z"/><path class="cls-24" d="M228.85,327.56c-.16-.73,8.89-2.31,8.89-2.31s6.82,4.26,12.44,4.23,3.42,3.88-2.53,5.31l-14.71,3.54C228.71,339.35,230.49,335.12,228.85,327.56Z"/><path class="cls-24" d="M173,350.37c0-.74,9.18-.05,9.18-.05s5.57,5.8,11,7.16,2.36,4.6-3.76,4.53l-15.14-.19C170,361.77,172.76,358.1,173,350.37Z"/><path class="cls-6" d="M302.43,174.25l-7.52,38.84s-22.09.1-30,2.12c0,0-17.32-3-26.48-3l9.7-38c.39-.13,18.46.26,25.19,2.9C273.29,177.15,291.48,174,302.43,174.25Z"/><path class="cls-14" d="M273.29,177.15l-8.41,38.06s-17.32-3-26.48-3l9.7-38C248.49,174.12,266.56,174.51,273.29,177.15Z"/><g class="cls-30"><path d="M269.46,181.54a.27.27,0,0,1-.12,0c-5.22-2.78-19.2-2.91-19.34-2.91a.25.25,0,0,1,0-.5h0c.58,0,14.25.13,19.58,3a.25.25,0,0,1-.12.47Z"/></g><g class="cls-30"><path d="M276.55,181.54a.26.26,0,0,1-.25-.2.25.25,0,0,1,.2-.29c.65-.12,15.79-2.88,21.29-2.19a.26.26,0,0,1,.22.28.26.26,0,0,1-.28.22c-5.43-.69-21,2.15-21.14,2.18Z"/></g><g class="cls-30"><path d="M268.4,186.12l-.11,0c-5.23-2.79-19.21-2.92-19.35-2.92a.25.25,0,0,1-.25-.25.25.25,0,0,1,.25-.25h0c.58,0,14.25.13,19.58,3a.25.25,0,0,1,.1.34A.23.23,0,0,1,268.4,186.12Z"/></g><g class="cls-30"><path d="M275.49,186.12a.25.25,0,0,1,0-.49c.64-.12,15.78-2.88,21.28-2.19a.25.25,0,0,1,.22.28.26.26,0,0,1-.28.22c-5.43-.69-21,2.15-21.13,2.18Z"/></g><g class="cls-30"><path d="M267.35,190.71a.27.27,0,0,1-.12,0c-5.23-2.78-19.21-2.91-19.35-2.91a.25.25,0,0,1,0-.5h0c.58,0,14.24.13,19.57,3a.24.24,0,0,1,.11.33A.25.25,0,0,1,267.35,190.71Z"/></g><g class="cls-30"><path d="M274.43,190.71a.25.25,0,0,1-.24-.21.25.25,0,0,1,.2-.29c.64-.12,15.78-2.87,21.29-2.18a.25.25,0,0,1-.07.49c-5.42-.68-21,2.16-21.13,2.18Z"/></g><g class="cls-30"><path d="M266.29,195.29a.27.27,0,0,1-.12,0c-5.22-2.78-19.2-2.91-19.34-2.91a.25.25,0,0,1,0-.5h0c.58,0,14.24.13,19.58,3a.25.25,0,0,1-.12.47Z"/></g><g class="cls-30"><path d="M273.38,195.29a.25.25,0,0,1-.25-.2.27.27,0,0,1,.2-.3c.64-.11,15.79-2.87,21.29-2.18a.26.26,0,0,1,.22.28.26.26,0,0,1-.28.22c-5.43-.68-21,2.15-21.14,2.18Z"/></g><g class="cls-30"><path d="M265.23,199.87l-.11,0c-5.23-2.79-19.21-2.92-19.35-2.92a.25.25,0,0,1,0-.5h0c.58,0,14.25.13,19.58,3a.25.25,0,0,1,.1.34A.23.23,0,0,1,265.23,199.87Z"/></g><g class="cls-30"><path d="M272.32,199.87a.25.25,0,0,1,0-.49c.64-.12,15.78-2.88,21.28-2.19a.26.26,0,0,1,.22.28.26.26,0,0,1-.28.22c-5.43-.68-21,2.15-21.13,2.18Z"/></g><g class="cls-30"><path d="M264.18,204.46a.27.27,0,0,1-.12,0c-5.23-2.78-19.21-2.91-19.35-2.91a.26.26,0,0,1-.25-.26.26.26,0,0,1,.25-.24h0c.58,0,14.24.13,19.57,3a.24.24,0,0,1,.11.33A.25.25,0,0,1,264.18,204.46Z"/></g><g class="cls-30"><path d="M271.26,204.46a.25.25,0,0,1-.24-.21.25.25,0,0,1,.2-.29c.64-.12,15.78-2.87,21.28-2.18a.24.24,0,0,1,.22.28.26.26,0,0,1-.28.21c-5.43-.68-21,2.16-21.13,2.18Z"/></g><g class="cls-30"><path d="M263.12,209a.27.27,0,0,1-.12,0c-5.22-2.78-19.2-2.91-19.34-2.91a.25.25,0,0,1,0-.5h0c.58,0,14.24.13,19.58,3a.26.26,0,0,1,.1.34A.26.26,0,0,1,263.12,209Z"/></g><g class="cls-30"><path d="M270.21,209a.25.25,0,0,1-.25-.2.27.27,0,0,1,.2-.3c.64-.11,15.79-2.87,21.29-2.18a.25.25,0,0,1-.07.5c-5.42-.69-21,2.15-21.13,2.18Z"/></g></g></g></svg>